<?xml version="1.0" encoding="UTF-8" standalone="no"?> <svg id="Layer_1" data-name="Layer 1" xmlns="http://www.w3.org/2000/svg" viewBox="0 0 25 25"><title>Write Message</title><path id="Write_Message" data-name="Write Message" d="M21,11h1V23.75A1.26,1.26,0,0,1,20.75,25H1.25A1.25,1.25,0,0,1,0,23.75V4.25A1.25,1.25,0,0,1,1.25,3H14V4H1.25A.25.25,0,0,0,1,4.25v19.5a.25.25,0,0,0,.25.25h19.5a.25.25,0,0,0,.25-.25ZM8.72,12.87,8,16.4a.5.5,0,0,0,.49.6h.1l3.5-.71a.5.5,0,0,0,.25-.14L22.68,5.82l-3.5-3.5L8.85,12.62A.5.5,0,0,0,8.72,12.87ZM24.54,1.75,23.25.46a1.56,1.56,0,0,0-2.2,0L19.88,1.61l3.5,3.5L24.54,4h0a1.56,1.56,0,0,0,0-2.2Z" fill="#0e1d25"/></svg>